# xmcd
#
# Track frame offsets: 
#        151
#        13323
#        24245
#        36891
#        49468
#        58473
#        67415
#        77963
#        89717
#        101208
#        107133
#        117302
#        127055
#        138021
#        151914
#        162846
#        173861
#        185170
#        197898
#        210696
#        224760
#        235259
#        246217
#        257426
#        269277
#
# Disc length: 3754 seconds
#
# Revision: 0
# Processed by: cddbd v1.5.1PL0 Copyright (c) Steve Scherf et al.
# Submitted via: ExactAudioCopy v0.95a3
#
DISCID=8a0ea819
DTITLE=Various Artist - The Best of Sun Country
DYEAR=1900
DGENRE=Country
TTITLE0=Carl Perkins - Let The Juke Box Keep On Playing
TTITLE1=Slim Rhodes - Take And Give
TTITLE2=Warren Smith - I'd Rather Be Safe Than Sorry
TTITLE3=Jerry Lee Lewis - Crazy Arms
TTITLE4=Billy Lee Riley - Sweet William
TTITLE5=Jack Earls - Crawdad Hole
TTITLE6=The Miller Sisters - You Can't Break The Chains Of Love
TTITLE7=Red Williams - I'm Loosing You
TTITLE8=Cliff Gleaves - Your Cheatin' Heart
TTITLE9=Roy Orbison - One More Time
TTITLE10=Carl Mann - Ain't You Got No Lovin' For Me
TTITLE11=Bill Strength - You Can't Hurt Me Anymore
TTITLE12=Mack Self - Goin' Crazy
TTITLE13=Anita Wood - I'll Wait Forever
TTITLE14=Carl McVoy - Born To Lose
TTITLE15=O.C. Holt - This Train
TTITLE16=Ray Smith - Sail Away
TTITLE17=Harold Jenkins - Just In Time
TTITLE18=Charlie Feathers - Frankie and Johnny
TTITLE19=Charlie Rich - Sittin' And Thinkin'
TTITLE20=Jimmy Wages - Heart Breakin' Love
TTITLE21=Jimmy Haggett - No More
TTITLE22=Barbara Pittman - Two Young Fools In Love
TTITLE23=Ernie Chaffin - Feelin' Low
TTITLE24=Johnny Cash - I Walk The Line
EXTD=
EXTT0=
EXTT1=
EXTT2=
EXTT3=
EXTT4=
EXTT5=
EXTT6=
EXTT7=
EXTT8=
EXTT9=
EXTT10=
EXTT11=
EXTT12=
EXTT13=
EXTT14=
EXTT15=
EXTT16=
EXTT17=
EXTT18=
EXTT19=
EXTT20=
EXTT21=
EXTT22=
EXTT23=
EXTT24=
PLAYORDER=
